<svg t="1610344111767" class="icon" viewBox="0 0 1024 1024" version="1.1" xmlns="http://www.w3.org/2000/svg" p-id="5417"
  width="32" height="32">
  <path
    d="M1024 128a128 128 0 0 0-128-128h-341.333333a128 128 0 0 0-128 128v768a128 128 0 0 0 128 128h341.333333a128 128 0 0 0 128-128V128z m-128-42.666667a42.666667 42.666667 0 0 1 42.666667 42.666667v768a42.666667 42.666667 0 0 1-42.666667 42.666667h-341.333333a42.666667 42.666667 0 0 1-42.666667-42.666667V128a42.666667 42.666667 0 0 1 42.666667-42.666667h341.333333zM213.333333 0a128 128 0 0 1 128 128v213.333333a128 128 0 0 1-128 128H128a128 128 0 0 1-128-128V128a128 128 0 0 1 128-128h85.333333z m42.666667 128a42.666667 42.666667 0 0 0-42.666667-42.666667H128a42.666667 42.666667 0 0 0-42.666667 42.666667v213.333333a42.666667 42.666667 0 0 0 42.666667 42.666667h85.333333a42.666667 42.666667 0 0 0 42.666667-42.666667V128z"
    fill="#303030" p-id="5418"></path>
</svg>